<svg width="514" height="81" viewBox="0 0 514 81" fill="none" xmlns="http://www.w3.org/2000/svg">
<path d="M124.972 15.6226C130.95 16.2166 136.514 18.9431 140.646 23.3031C144.778 27.663 147.202 33.365 147.474 39.3657" stroke="white" stroke-width="7" stroke-linecap="round" stroke-linejoin="round"/>
<path d="M475.972 15.6226C481.95 16.2166 487.514 18.9431 491.646 23.3031C495.778 27.663 498.202 33.365 498.474 39.3657" stroke="white" stroke-width="7" stroke-linecap="round" stroke-linejoin="round"/>
<path d="M5.2 80C3.73333 80 2.5 79.5 1.5 78.5C0.5 77.5 0 76.2667 0 74.8V7.09999C0 5.56666 0.5 4.33332 1.5 3.39999C2.5 2.39999 3.73333 1.89999 5.2 1.89999C6.73333 1.89999 7.96667 2.39999 8.9 3.39999C9.9 4.33332 10.4 5.56666 10.4 7.09999V35.8H56.8V7.09999C56.8 5.56666 57.3 4.33332 58.3 3.39999C59.3 2.39999 60.5333 1.89999 62 1.89999C63.5333 1.89999 64.7667 2.39999 65.7 3.39999C66.6333 4.33332 67.1 5.56666 67.1 7.09999V74.8C67.1 76.2667 66.6333 77.5 65.7 78.5C64.7667 79.5 63.5333 80 62 80C60.5333 80 59.3 79.5 58.3 78.5C57.3 77.5 56.8 76.2667 56.8 74.8V45H10.4V74.8C10.4 76.2667 9.9 77.5 8.9 78.5C7.96667 79.5 6.73333 80 5.2 80Z" fill="url(#paint0_linear_105_10)"/>
<path d="M123.209 81C117.343 81 111.976 80.0333 107.109 78.1C102.243 76.1 98.0427 73.3333 94.5094 69.8C91.0427 66.2 88.3427 61.9667 86.4094 57.1C84.476 52.1667 83.5094 46.7667 83.5094 40.9C83.5094 35.0333 84.476 29.6667 86.4094 24.8C88.3427 19.9333 91.0427 15.7333 94.5094 12.2C98.0427 8.59999 102.243 5.83332 107.109 3.89999C111.976 1.89999 117.343 0.899994 123.209 0.899994C129.076 0.899994 134.409 1.89999 139.209 3.89999C144.076 5.83332 148.276 8.59999 151.809 12.2C155.343 15.7333 158.076 19.9333 160.009 24.8C161.943 29.6667 162.909 35.0333 162.909 40.9C162.909 46.7667 161.943 52.1667 160.009 57.1C158.076 61.9667 155.343 66.2 151.809 69.8C148.276 73.3333 144.076 76.1 139.209 78.1C134.409 80.0333 129.076 81 123.209 81ZM123.209 71.6C127.543 71.6 131.509 70.8333 135.109 69.3C138.776 67.7 141.943 65.5333 144.609 62.8C147.276 60 149.309 56.7333 150.709 53C152.176 49.2667 152.909 45.2333 152.909 40.9C152.909 36.5667 152.176 32.5333 150.709 28.8C149.309 25.0667 147.276 21.8333 144.609 19.1C141.943 16.3 138.776 14.1333 135.109 12.6C131.509 11.0667 127.543 10.3 123.209 10.3C118.876 10.3 114.876 11.0667 111.209 12.6C107.609 14.1333 104.476 16.3 101.809 19.1C99.2094 21.8333 97.176 25.0667 95.7094 28.8C94.2427 32.5333 93.5094 36.5667 93.5094 40.9C93.5094 45.2333 94.2427 49.2667 95.7094 53C97.176 56.7333 99.2094 60 101.809 62.8C104.476 65.5333 107.609 67.7 111.209 69.3C114.876 70.8333 118.876 71.6 123.209 71.6Z" fill="url(#paint1_linear_105_10)"/>
<path d="M203.999 81C199.733 81 195.666 80.3333 191.799 79C187.933 77.6667 184.566 75.8 181.699 73.4C178.833 71 176.733 68.2333 175.399 65.1C174.733 63.7 174.733 62.4 175.399 61.2C176.133 60 177.333 59.2333 178.999 58.9C180.199 58.6333 181.366 58.8333 182.499 59.5C183.699 60.1 184.599 61.0333 185.199 62.3C185.999 63.9667 187.299 65.5 189.099 66.9C190.966 68.3 193.199 69.4333 195.799 70.3C198.399 71.1667 201.133 71.6 203.999 71.6C207.199 71.6 210.133 71.1 212.799 70.1C215.533 69.1 217.733 67.6667 219.399 65.8C221.066 63.8667 221.899 61.5 221.899 58.7C221.899 55.1667 220.499 52 217.699 49.2C214.966 46.4 210.433 44.6667 204.099 44C195.833 43.2 189.333 40.7667 184.599 36.7C179.866 32.6333 177.499 27.6 177.499 21.6C177.499 17.2 178.733 13.4667 181.199 10.4C183.666 7.33332 186.999 4.99999 191.199 3.39999C195.466 1.79999 200.199 0.999993 205.399 0.999993C209.466 0.999993 212.999 1.56666 215.999 2.69999C219.066 3.83332 221.733 5.39999 223.999 7.39999C226.266 9.39999 228.233 11.7667 229.899 14.5C230.833 15.9667 231.199 17.3667 230.999 18.7C230.866 19.9667 230.233 20.9667 229.099 21.7C227.833 22.5 226.466 22.6667 224.999 22.2C223.533 21.7333 222.433 20.8667 221.699 19.6C220.633 17.6667 219.333 16.0333 217.799 14.7C216.266 13.3667 214.466 12.3333 212.399 11.6C210.333 10.8 207.899 10.4 205.099 10.4C200.166 10.3333 196.033 11.2667 192.699 13.2C189.366 15.0667 187.699 17.9667 187.699 21.9C187.699 23.9 188.199 25.8333 189.199 27.7C190.266 29.5 192.166 31.0667 194.899 32.4C197.699 33.7333 201.699 34.6667 206.899 35.2C214.833 36 220.999 38.4333 225.399 42.5C229.866 46.5 232.099 51.8 232.099 58.4C232.099 62.2 231.299 65.5 229.699 68.3C228.166 71.1 226.066 73.4667 223.399 75.4C220.799 77.2667 217.799 78.6667 214.399 79.6C211.066 80.5333 207.599 81 203.999 81Z" fill="url(#paint2_linear_105_10)"/>
<path d="M267.143 80C265.676 80 264.443 79.5 263.443 78.5C262.443 77.5 261.943 76.2667 261.943 74.8V1.89999H272.343V74.8C272.343 76.2667 271.843 77.5 270.843 78.5C269.843 79.5 268.61 80 267.143 80ZM240.343 11.5C238.943 11.5 237.776 11.0667 236.843 10.2C235.976 9.26666 235.543 8.09999 235.543 6.69999C235.543 5.29999 235.976 4.16666 236.843 3.29999C237.776 2.36666 238.943 1.89999 240.343 1.89999H293.843C295.243 1.89999 296.376 2.36666 297.243 3.29999C298.176 4.16666 298.643 5.29999 298.643 6.69999C298.643 8.09999 298.176 9.26666 297.243 10.2C296.376 11.0667 295.243 11.5 293.843 11.5H240.343Z" fill="url(#paint3_linear_105_10)"/>
<path d="M315.356 80C313.89 80 312.656 79.5 311.656 78.5C310.656 77.5 310.156 76.2667 310.156 74.8V7.09999C310.156 5.56666 310.656 4.33332 311.656 3.39999C312.656 2.39999 313.89 1.89999 315.356 1.89999H360.556C362.09 1.89999 363.323 2.36666 364.256 3.29999C365.19 4.16666 365.656 5.33333 365.656 6.79999C365.656 8.19999 365.19 9.33333 364.256 10.2C363.323 11.0667 362.09 11.5 360.556 11.5H320.556V35.8H349.256C350.79 35.8 352.023 36.2667 352.956 37.2C353.89 38.0667 354.356 39.2 354.356 40.6C354.356 42 353.89 43.1667 352.956 44.1C352.023 44.9667 350.79 45.4 349.256 45.4H320.556V70.4H360.556C362.09 70.4 363.323 70.8333 364.256 71.7C365.19 72.5667 365.656 73.7 365.656 75.1C365.656 76.5667 365.19 77.7667 364.256 78.7C363.323 79.5667 362.09 80 360.556 80H315.356Z" fill="url(#paint4_linear_105_10)"/>
<path d="M385.276 80C383.809 80 382.576 79.5 381.576 78.5C380.642 77.5 380.176 76.2667 380.176 74.8V7.09999C380.176 5.63332 380.676 4.39999 381.676 3.39999C382.676 2.39999 383.876 1.89999 385.276 1.89999C386.742 1.89999 387.976 2.39999 388.976 3.39999C389.976 4.39999 390.476 5.63332 390.476 7.09999V69.6H426.676C428.142 69.6 429.376 70.1 430.376 71.1C431.376 72.1 431.876 73.3333 431.876 74.8C431.876 76.2667 431.376 77.5 430.376 78.5C429.376 79.5 428.142 80 426.676 80H385.276Z" fill="url(#paint5_linear_105_10)"/>
<path d="M473.405 81C467.538 81 462.171 80.0333 457.305 78.1C452.438 76.1 448.238 73.3333 444.705 69.8C441.238 66.2 438.538 61.9667 436.605 57.1C434.671 52.1667 433.705 46.7667 433.705 40.9C433.705 35.0333 434.671 29.6667 436.605 24.8C438.538 19.9333 441.238 15.7333 444.705 12.2C448.238 8.59999 452.438 5.83332 457.305 3.89999C462.171 1.89999 467.538 0.899994 473.405 0.899994C479.271 0.899994 484.605 1.89999 489.405 3.89999C494.271 5.83332 498.471 8.59999 502.005 12.2C505.538 15.7333 508.271 19.9333 510.205 24.8C512.138 29.6667 513.105 35.0333 513.105 40.9C513.105 46.7667 512.138 52.1667 510.205 57.1C508.271 61.9667 505.538 66.2 502.005 69.8C498.471 73.3333 494.271 76.1 489.405 78.1C484.605 80.0333 479.271 81 473.405 81ZM473.405 71.6C477.738 71.6 481.705 70.8333 485.305 69.3C488.971 67.7 492.138 65.5333 494.805 62.8C497.471 60 499.505 56.7333 500.905 53C502.371 49.2667 503.105 45.2333 503.105 40.9C503.105 36.5667 502.371 32.5333 500.905 28.8C499.505 25.0667 497.471 21.8333 494.805 19.1C492.138 16.3 488.971 14.1333 485.305 12.6C481.705 11.0667 477.738 10.3 473.405 10.3C469.071 10.3 465.071 11.0667 461.405 12.6C457.805 14.1333 454.671 16.3 452.005 19.1C449.405 21.8333 447.371 25.0667 445.905 28.8C444.438 32.5333 443.705 36.5667 443.705 40.9C443.705 45.2333 444.438 49.2667 445.905 53C447.371 56.7333 449.405 60 452.005 62.8C454.671 65.5333 457.805 67.7 461.405 69.3C465.071 70.8333 469.071 71.6 473.405 71.6Z" fill="url(#paint6_linear_105_10)"/>
<defs>
<linearGradient id="paint0_linear_105_10" x1="0.26634" y1="44.1043" x2="519.953" y2="51.7129" gradientUnits="userSpaceOnUse">
<stop stop-color="#3C50E0"/>
<stop offset="1" stop-color="#006FFF"/>
</linearGradient>
<linearGradient id="paint1_linear_105_10" x1="0.26634" y1="44.1043" x2="519.953" y2="51.7129" gradientUnits="userSpaceOnUse">
<stop stop-color="#3C50E0"/>
<stop offset="1" stop-color="#006FFF"/>
</linearGradient>
<linearGradient id="paint2_linear_105_10" x1="0.26634" y1="44.1043" x2="519.953" y2="51.7129" gradientUnits="userSpaceOnUse">
<stop stop-color="#3C50E0"/>
<stop offset="1" stop-color="#006FFF"/>
</linearGradient>
<linearGradient id="paint3_linear_105_10" x1="0.26634" y1="44.1043" x2="519.953" y2="51.7129" gradientUnits="userSpaceOnUse">
<stop stop-color="#3C50E0"/>
<stop offset="1" stop-color="#006FFF"/>
</linearGradient>
<linearGradient id="paint4_linear_105_10" x1="0.26634" y1="44.1043" x2="519.953" y2="51.7129" gradientUnits="userSpaceOnUse">
<stop stop-color="#3C50E0"/>
<stop offset="1" stop-color="#006FFF"/>
</linearGradient>
<linearGradient id="paint5_linear_105_10" x1="0.26634" y1="44.1043" x2="519.953" y2="51.7129" gradientUnits="userSpaceOnUse">
<stop stop-color="#3C50E0"/>
<stop offset="1" stop-color="#006FFF"/>
</linearGradient>
<linearGradient id="paint6_linear_105_10" x1="0.26634" y1="44.1043" x2="519.953" y2="51.7129" gradientUnits="userSpaceOnUse">
<stop stop-color="#3C50E0"/>
<stop offset="1" stop-color="#006FFF"/>
</linearGradient>
</defs>
</svg>
