<svg width="514" height="81" viewBox="0 0 514 81" fill="none" xmlns="http://www.w3.org/2000/svg">
<path d="M124.972 14.7226C130.95 15.3167 136.514 18.0431 140.646 22.4031C144.778 26.763 147.202 32.465 147.474 38.4657" stroke="#121846" stroke-width="7" stroke-linecap="round" stroke-linejoin="round"/>
<path d="M475.972 14.7226C481.95 15.3167 487.514 18.0431 491.646 22.4031C495.778 26.763 498.202 32.465 498.474 38.4657" stroke="#121846" stroke-width="7" stroke-linecap="round" stroke-linejoin="round"/>
<path d="M5.2 79.1C3.73333 79.1 2.5 78.6 1.5 77.6C0.5 76.6 0 75.3667 0 73.9V6.2C0 4.66666 0.5 3.43333 1.5 2.5C2.5 1.5 3.73333 0.999999 5.2 0.999999C6.73333 0.999999 7.96667 1.5 8.9 2.5C9.9 3.43333 10.4 4.66666 10.4 6.2V34.9H56.8V6.2C56.8 4.66666 57.3 3.43333 58.3 2.5C59.3 1.5 60.5333 0.999999 62 0.999999C63.5333 0.999999 64.7667 1.5 65.7 2.5C66.6333 3.43333 67.1 4.66666 67.1 6.2V73.9C67.1 75.3667 66.6333 76.6 65.7 77.6C64.7667 78.6 63.5333 79.1 62 79.1C60.5333 79.1 59.3 78.6 58.3 77.6C57.3 76.6 56.8 75.3667 56.8 73.9V44.1H10.4V73.9C10.4 75.3667 9.9 76.6 8.9 77.6C7.96667 78.6 6.73333 79.1 5.2 79.1Z" fill="url(#paint0_linear_105_11)"/>
<path d="M123.209 80.1C117.343 80.1 111.976 79.1333 107.109 77.2C102.243 75.2 98.0427 72.4333 94.5094 68.9C91.0427 65.3 88.3427 61.0667 86.4094 56.2C84.476 51.2667 83.5094 45.8667 83.5094 40C83.5094 34.1333 84.476 28.7667 86.4094 23.9C88.3427 19.0333 91.0427 14.8333 94.5094 11.3C98.0427 7.7 102.243 4.93333 107.109 3C111.976 0.999999 117.343 0 123.209 0C129.076 0 134.409 0.999999 139.209 3C144.076 4.93333 148.276 7.7 151.809 11.3C155.343 14.8333 158.076 19.0333 160.009 23.9C161.943 28.7667 162.909 34.1333 162.909 40C162.909 45.8667 161.943 51.2667 160.009 56.2C158.076 61.0667 155.343 65.3 151.809 68.9C148.276 72.4333 144.076 75.2 139.209 77.2C134.409 79.1333 129.076 80.1 123.209 80.1ZM123.209 70.7C127.543 70.7 131.509 69.9333 135.109 68.4C138.776 66.8 141.943 64.6333 144.609 61.9C147.276 59.1 149.309 55.8333 150.709 52.1C152.176 48.3667 152.909 44.3333 152.909 40C152.909 35.6667 152.176 31.6333 150.709 27.9C149.309 24.1667 147.276 20.9333 144.609 18.2C141.943 15.4 138.776 13.2333 135.109 11.7C131.509 10.1667 127.543 9.4 123.209 9.4C118.876 9.4 114.876 10.1667 111.209 11.7C107.609 13.2333 104.476 15.4 101.809 18.2C99.2094 20.9333 97.176 24.1667 95.7094 27.9C94.2427 31.6333 93.5094 35.6667 93.5094 40C93.5094 44.3333 94.2427 48.3667 95.7094 52.1C97.176 55.8333 99.2094 59.1 101.809 61.9C104.476 64.6333 107.609 66.8 111.209 68.4C114.876 69.9333 118.876 70.7 123.209 70.7Z" fill="url(#paint1_linear_105_11)"/>
<path d="M203.999 80.1C199.733 80.1 195.666 79.4333 191.799 78.1C187.933 76.7667 184.566 74.9 181.699 72.5C178.833 70.1 176.733 67.3333 175.399 64.2C174.733 62.8 174.733 61.5 175.399 60.3C176.133 59.1 177.333 58.3333 178.999 58C180.199 57.7333 181.366 57.9333 182.499 58.6C183.699 59.2 184.599 60.1333 185.199 61.4C185.999 63.0667 187.299 64.6 189.099 66C190.966 67.4 193.199 68.5333 195.799 69.4C198.399 70.2667 201.133 70.7 203.999 70.7C207.199 70.7 210.133 70.2 212.799 69.2C215.533 68.2 217.733 66.7667 219.399 64.9C221.066 62.9667 221.899 60.6 221.899 57.8C221.899 54.2667 220.499 51.1 217.699 48.3C214.966 45.5 210.433 43.7667 204.099 43.1C195.833 42.3 189.333 39.8667 184.599 35.8C179.866 31.7333 177.499 26.7 177.499 20.7C177.499 16.3 178.733 12.5667 181.199 9.5C183.666 6.43333 186.999 4.1 191.199 2.5C195.466 0.899998 200.199 0.0999987 205.399 0.0999987C209.466 0.0999987 212.999 0.666664 215.999 1.79999C219.066 2.93333 221.733 4.5 223.999 6.5C226.266 8.5 228.233 10.8667 229.899 13.6C230.833 15.0667 231.199 16.4667 230.999 17.8C230.866 19.0667 230.233 20.0667 229.099 20.8C227.833 21.6 226.466 21.7667 224.999 21.3C223.533 20.8333 222.433 19.9667 221.699 18.7C220.633 16.7667 219.333 15.1333 217.799 13.8C216.266 12.4667 214.466 11.4333 212.399 10.7C210.333 9.9 207.899 9.5 205.099 9.5C200.166 9.43333 196.033 10.3667 192.699 12.3C189.366 14.1667 187.699 17.0667 187.699 21C187.699 23 188.199 24.9333 189.199 26.8C190.266 28.6 192.166 30.1667 194.899 31.5C197.699 32.8333 201.699 33.7667 206.899 34.3C214.833 35.1 220.999 37.5333 225.399 41.6C229.866 45.6 232.099 50.9 232.099 57.5C232.099 61.3 231.299 64.6 229.699 67.4C228.166 70.2 226.066 72.5667 223.399 74.5C220.799 76.3667 217.799 77.7667 214.399 78.7C211.066 79.6333 207.599 80.1 203.999 80.1Z" fill="url(#paint2_linear_105_11)"/>
<path d="M267.143 79.1C265.676 79.1 264.443 78.6 263.443 77.6C262.443 76.6 261.943 75.3667 261.943 73.9V0.999999H272.343V73.9C272.343 75.3667 271.843 76.6 270.843 77.6C269.843 78.6 268.61 79.1 267.143 79.1ZM240.343 10.6C238.943 10.6 237.776 10.1667 236.843 9.3C235.976 8.36667 235.543 7.2 235.543 5.8C235.543 4.4 235.976 3.26667 236.843 2.4C237.776 1.46667 238.943 0.999999 240.343 0.999999H293.843C295.243 0.999999 296.376 1.46667 297.243 2.4C298.176 3.26667 298.643 4.4 298.643 5.8C298.643 7.2 298.176 8.36667 297.243 9.3C296.376 10.1667 295.243 10.6 293.843 10.6H240.343Z" fill="url(#paint3_linear_105_11)"/>
<path d="M315.356 79.1C313.89 79.1 312.656 78.6 311.656 77.6C310.656 76.6 310.156 75.3667 310.156 73.9V6.2C310.156 4.66666 310.656 3.43333 311.656 2.5C312.656 1.5 313.89 0.999999 315.356 0.999999H360.556C362.09 0.999999 363.323 1.46667 364.256 2.4C365.19 3.26667 365.656 4.43333 365.656 5.9C365.656 7.3 365.19 8.43333 364.256 9.3C363.323 10.1667 362.09 10.6 360.556 10.6H320.556V34.9H349.256C350.79 34.9 352.023 35.3667 352.956 36.3C353.89 37.1667 354.356 38.3 354.356 39.7C354.356 41.1 353.89 42.2667 352.956 43.2C352.023 44.0667 350.79 44.5 349.256 44.5H320.556V69.5H360.556C362.09 69.5 363.323 69.9333 364.256 70.8C365.19 71.6667 365.656 72.8 365.656 74.2C365.656 75.6667 365.19 76.8667 364.256 77.8C363.323 78.6667 362.09 79.1 360.556 79.1H315.356Z" fill="url(#paint4_linear_105_11)"/>
<path d="M385.276 79.1C383.809 79.1 382.576 78.6 381.576 77.6C380.642 76.6 380.176 75.3667 380.176 73.9V6.2C380.176 4.73333 380.676 3.5 381.676 2.5C382.676 1.5 383.876 0.999999 385.276 0.999999C386.742 0.999999 387.976 1.5 388.976 2.5C389.976 3.5 390.476 4.73333 390.476 6.2V68.7H426.676C428.142 68.7 429.376 69.2 430.376 70.2C431.376 71.2 431.876 72.4333 431.876 73.9C431.876 75.3667 431.376 76.6 430.376 77.6C429.376 78.6 428.142 79.1 426.676 79.1H385.276Z" fill="url(#paint5_linear_105_11)"/>
<path d="M473.405 80.1C467.538 80.1 462.171 79.1333 457.305 77.2C452.438 75.2 448.238 72.4333 444.705 68.9C441.238 65.3 438.538 61.0667 436.605 56.2C434.671 51.2667 433.705 45.8667 433.705 40C433.705 34.1333 434.671 28.7667 436.605 23.9C438.538 19.0333 441.238 14.8333 444.705 11.3C448.238 7.7 452.438 4.93333 457.305 3C462.171 0.999999 467.538 0 473.405 0C479.271 0 484.605 0.999999 489.405 3C494.271 4.93333 498.471 7.7 502.005 11.3C505.538 14.8333 508.271 19.0333 510.205 23.9C512.138 28.7667 513.105 34.1333 513.105 40C513.105 45.8667 512.138 51.2667 510.205 56.2C508.271 61.0667 505.538 65.3 502.005 68.9C498.471 72.4333 494.271 75.2 489.405 77.2C484.605 79.1333 479.271 80.1 473.405 80.1ZM473.405 70.7C477.738 70.7 481.705 69.9333 485.305 68.4C488.971 66.8 492.138 64.6333 494.805 61.9C497.471 59.1 499.505 55.8333 500.905 52.1C502.371 48.3667 503.105 44.3333 503.105 40C503.105 35.6667 502.371 31.6333 500.905 27.9C499.505 24.1667 497.471 20.9333 494.805 18.2C492.138 15.4 488.971 13.2333 485.305 11.7C481.705 10.1667 477.738 9.4 473.405 9.4C469.071 9.4 465.071 10.1667 461.405 11.7C457.805 13.2333 454.671 15.4 452.005 18.2C449.405 20.9333 447.371 24.1667 445.905 27.9C444.438 31.6333 443.705 35.6667 443.705 40C443.705 44.3333 444.438 48.3667 445.905 52.1C447.371 55.8333 449.405 59.1 452.005 61.9C454.671 64.6333 457.805 66.8 461.405 68.4C465.071 69.9333 469.071 70.7 473.405 70.7Z" fill="url(#paint6_linear_105_11)"/>
<defs>
<linearGradient id="paint0_linear_105_11" x1="0.26634" y1="43.2043" x2="519.953" y2="50.8129" gradientUnits="userSpaceOnUse">
<stop stop-color="#3C50E0"/>
<stop offset="1" stop-color="#006FFF"/>
</linearGradient>
<linearGradient id="paint1_linear_105_11" x1="0.26634" y1="43.2043" x2="519.953" y2="50.8129" gradientUnits="userSpaceOnUse">
<stop stop-color="#3C50E0"/>
<stop offset="1" stop-color="#006FFF"/>
</linearGradient>
<linearGradient id="paint2_linear_105_11" x1="0.26634" y1="43.2043" x2="519.953" y2="50.8129" gradientUnits="userSpaceOnUse">
<stop stop-color="#3C50E0"/>
<stop offset="1" stop-color="#006FFF"/>
</linearGradient>
<linearGradient id="paint3_linear_105_11" x1="0.26634" y1="43.2043" x2="519.953" y2="50.8129" gradientUnits="userSpaceOnUse">
<stop stop-color="#3C50E0"/>
<stop offset="1" stop-color="#006FFF"/>
</linearGradient>
<linearGradient id="paint4_linear_105_11" x1="0.26634" y1="43.2043" x2="519.953" y2="50.8129" gradientUnits="userSpaceOnUse">
<stop stop-color="#3C50E0"/>
<stop offset="1" stop-color="#006FFF"/>
</linearGradient>
<linearGradient id="paint5_linear_105_11" x1="0.26634" y1="43.2043" x2="519.953" y2="50.8129" gradientUnits="userSpaceOnUse">
<stop stop-color="#3C50E0"/>
<stop offset="1" stop-color="#006FFF"/>
</linearGradient>
<linearGradient id="paint6_linear_105_11" x1="0.26634" y1="43.2043" x2="519.953" y2="50.8129" gradientUnits="userSpaceOnUse">
<stop stop-color="#3C50E0"/>
<stop offset="1" stop-color="#006FFF"/>
</linearGradient>
</defs>
</svg>
